<?xml version="1.0" encoding="UTF-8"?>
<!DOCTYPE svg PUBLIC "-//W3C//DTD SVG 1.1//EN" "http://www.w3.org/Graphics/SVG/1.1/DTD/svg11.dtd">
<svg xmlns="http://www.w3.org/2000/svg" version="1.1" width="600px" height="408px" style="shape-rendering:geometricPrecision; text-rendering:geometricPrecision; image-rendering:optimizeQuality; fill-rule:evenodd; clip-rule:evenodd" xmlns:xlink="http://www.w3.org/1999/xlink">
<g><path style="opacity:1" fill="#f1f3f4" d="M -0.5,0.5 C -0.5,0.166667 -0.5,-0.166667 -0.5,-0.5C 199.5,-0.5 399.5,-0.5 599.5,-0.5C 599.5,-0.166667 599.5,0.166667 599.5,0.5C 510.665,0.167299 421.998,0.500632 333.5,1.5C 316.158,0.256281 298.825,0.256281 281.5,1.5C 187.668,0.500596 93.6681,0.167262 -0.5,0.5 Z"/></g>
<g><path style="opacity:1" fill="#fefefe" d="M -0.5,0.5 C 93.6681,0.167262 187.668,0.500596 281.5,1.5C 204.626,14.8838 150.459,57.2171 119,128.5C 95.8462,192.388 101.846,253.388 137,311.5C 171.311,362.925 219.145,393.592 280.5,403.5C 187.001,404.499 93.3348,404.833 -0.5,404.5C -0.5,269.833 -0.5,135.167 -0.5,0.5 Z"/></g>
<g><path style="opacity:1" fill="#055c9a" d="M 333.5,1.5 C 400.182,12.3966 450.682,46.7299 485,104.5C 519.814,172.03 518.814,239.03 482,305.5C 447.666,360.308 398.5,392.974 334.5,403.5C 316.495,404.802 298.495,404.802 280.5,403.5C 219.145,393.592 171.311,362.925 137,311.5C 101.846,253.388 95.8462,192.388 119,128.5C 150.459,57.2171 204.626,14.8838 281.5,1.5C 298.825,0.256281 316.158,0.256281 333.5,1.5 Z"/></g>
<g><path style="opacity:1" fill="#fefefe" d="M 333.5,1.5 C 421.998,0.500632 510.665,0.167299 599.5,0.5C 599.5,135.167 599.5,269.833 599.5,404.5C 510.998,404.833 422.665,404.499 334.5,403.5C 398.5,392.974 447.666,360.308 482,305.5C 518.814,239.03 519.814,172.03 485,104.5C 450.682,46.7299 400.182,12.3966 333.5,1.5 Z"/></g>
<g><path style="opacity:1" fill="#f3f6f9" d="M 246.5,18.5 C 247.833,18.5 249.167,18.5 250.5,18.5C 252.156,24.6775 255.656,29.6775 261,33.5C 259.77,38.109 260.437,42.4423 263,46.5C 263.146,51.4804 263.979,56.3137 265.5,61C 265.501,64.0433 264.668,64.21 263,61.5C 260.626,57.2505 258.126,53.0838 255.5,49C 252.587,49.2903 249.587,49.4569 246.5,49.5C 246.59,47.3037 246.923,45.137 247.5,43C 245.119,40.0119 243.785,36.5119 243.5,32.5C 244.871,30.299 246.538,28.299 248.5,26.5C 247.622,23.8702 246.955,21.2035 246.5,18.5 Z"/></g>
<g><path style="opacity:1" fill="#f1f5f9" d="M 364.5,22.5 C 368.805,22.8424 370.305,25.1757 369,29.5C 367,32.8333 364.333,35.5 361,37.5C 360.312,38.3317 360.479,38.9984 361.5,39.5C 362.981,38.5197 364.315,37.353 365.5,36C 369.541,35.8265 373.541,35.3265 377.5,34.5C 378.496,30.4994 380.496,27.1661 383.5,24.5C 383.833,24.8333 384.167,25.1667 384.5,25.5C 383.079,29.0278 382.412,32.6945 382.5,36.5C 385.354,36.0761 388.021,35.0761 390.5,33.5C 391.614,34.723 391.781,36.0563 391,37.5C 387.702,41.1646 383.535,42.4979 378.5,41.5C 378.5,42.8333 378.5,44.1667 378.5,45.5C 380.167,45.5 381.833,45.5 383.5,45.5C 383.067,51.1318 381.067,56.1318 377.5,60.5C 380.317,65.9617 383.983,70.795 388.5,75C 382.012,75.3935 376.178,73.5602 371,69.5C 370.505,67.5273 370.338,65.5273 370.5,63.5C 364.387,64.5896 359.221,62.923 355,58.5C 354.282,53.9353 355.782,50.2687 359.5,47.5C 360.314,49.7662 360.814,52.0995 361,54.5C 362.11,56.0368 363.61,56.7035 365.5,56.5C 364.857,53.6749 363.523,51.1749 361.5,49C 361.95,47.7147 362.617,46.548 363.5,45.5C 357.911,45.5576 354.411,48.5576 353,54.5C 351.026,57.1183 349.193,56.9517 347.5,54C 345.5,53.6667 343.5,53.3333 341.5,53C 340.24,51.1862 340.24,49.3529 341.5,47.5C 349.184,47.1781 353.85,43.3447 355.5,36C 355.507,34.1878 354.84,32.6878 353.5,31.5C 355.343,31.2448 357.343,31.0781 359.5,31C 361.556,28.3859 363.223,25.5525 364.5,22.5 Z"/></g>
<g><path style="opacity:1" fill="#edf3f7" d="M 229.5,23.5 C 230.822,23.33 231.989,23.6634 233,24.5C 232.582,29.4645 232.582,34.4645 233,39.5C 234.903,41.441 235.736,43.7743 235.5,46.5C 236.675,46.719 237.675,46.3857 238.5,45.5C 239.06,43.1463 239.727,40.813 240.5,38.5C 241.669,42.6541 241.669,46.8208 240.5,51C 241.327,54.4878 242.827,57.6544 245,60.5C 245.495,62.4727 245.662,64.4727 245.5,66.5C 243.856,66.7135 242.356,66.3802 241,65.5C 239.792,56.3376 237.626,56.171 234.5,65C 233.004,65.5074 231.837,65.0074 231,63.5C 230.667,59.1667 230.333,54.8333 230,50.5C 225.644,56.4163 223.977,55.7496 225,48.5C 226.493,45.6846 228.327,43.1846 230.5,41C 228.365,35.2251 228.032,29.3918 229.5,23.5 Z"/></g>
<g><path style="opacity:1" fill="#3271a7" d="M 247.5,33.5 C 248.5,33.5 249.5,33.5 250.5,33.5C 250.5,34.5 250.5,35.5 250.5,36.5C 249.5,36.5 248.5,36.5 247.5,36.5C 247.5,35.5 247.5,34.5 247.5,33.5 Z"/></g>
<g><path style="opacity:1" fill="#1a649f" d="M 250.5,40.5 C 251.5,40.5 252.5,40.5 253.5,40.5C 253.778,42.3464 253.111,43.6798 251.5,44.5C 250.571,43.3112 250.238,41.9778 250.5,40.5 Z"/></g>
<g><path style="opacity:1" fill="#2b6ca4" d="M 366.5,39.5 C 369.487,39.9478 370.487,41.4478 369.5,44C 366.041,44.1454 365.041,42.6454 366.5,39.5 Z"/></g>
<g><path style="opacity:1" fill="#3571a7" d="M 373.5,50.5 C 374.5,50.5 375.5,50.5 376.5,50.5C 376.833,53.5 375.5,54.8333 372.5,54.5C 372.433,53.0413 372.766,51.7079 373.5,50.5 Z"/></g>
<g><path style="opacity:1" fill="#447eb1" d="M 234.5,51.5 C 236.337,51.6395 236.67,52.3061 235.5,53.5C 234.702,53.0431 234.369,52.3764 234.5,51.5 Z"/></g>
<g><path style="opacity:1" fill="#fcfcfd" d="M 290.5,63.5 C 350.471,59.7333 396.304,83.0666 428,133.5C 451.549,179.61 451.216,225.61 427,271.5C 395.144,321.012 349.644,343.845 290.5,340C 232.074,330.234 193.241,297.401 174,241.5C 159.33,184.997 173.163,136.831 215.5,97C 237.355,78.7383 262.355,67.5716 290.5,63.5 Z"/></g>
<g><path style="opacity:1" fill="#f2f6f9" d="M 148.5,91.5 C 150.655,91.372 152.655,91.872 154.5,93C 158.733,97.2331 162.9,101.4 167,105.5C 169.375,102.606 171.875,99.7722 174.5,97C 176.025,95.9914 177.692,95.4914 179.5,95.5C 179.656,98.0661 179.322,100.566 178.5,103C 181.916,105.474 185.083,108.307 188,111.5C 188.089,117.824 185.589,122.99 180.5,127C 179.667,127.167 178.833,127.333 178,127.5C 175.62,126.799 173.453,125.633 171.5,124C 168.518,123.502 165.518,123.335 162.5,123.5C 163.674,119.516 164.507,115.516 165,111.5C 160.867,108.369 157.034,104.869 153.5,101C 150.808,100.57 148.141,100.737 145.5,101.5C 143.427,97.1062 144.427,93.7729 148.5,91.5 Z"/></g>
<g><path style="opacity:1" fill="#f4f7fa" d="M 464.5,99.5 C 466.467,99.2606 468.301,99.5939 470,100.5C 470.667,103.167 470.667,105.833 470,108.5C 466.328,111.342 462.828,114.342 459.5,117.5C 465.729,118.721 469.062,122.388 469.5,128.5C 467.801,128.66 466.134,128.494 464.5,128C 461.491,124.981 457.991,122.814 454,121.5C 450.816,122.841 447.649,124.341 444.5,126C 437.162,127.277 431.496,124.777 427.5,118.5C 427.977,117.522 428.643,116.689 429.5,116C 432.482,115.502 435.482,115.335 438.5,115.5C 438.137,112.437 437.47,109.437 436.5,106.5C 436.427,102.927 438.094,101.76 441.5,103C 443.755,105.763 446.421,107.929 449.5,109.5C 451.299,109.423 452.966,108.923 454.5,108C 458.025,105.302 461.358,102.469 464.5,99.5 Z"/></g>
<g><path style="opacity:1" fill="#20649f" d="M 172.5,111.5 C 179.803,111.602 181.803,114.769 178.5,121C 169.73,121.952 167.73,118.785 172.5,111.5 Z"/></g>
<g><path style="opacity:1" fill="#f47435" d="M 316.5,140.5 C 313.833,142.167 311.167,143.833 308.5,145.5C 297.225,136.025 284.559,128.858 270.5,124C 255.177,120.74 245.343,126.574 241,141.5C 238.923,160.088 243.089,177.088 253.5,192.5C 248.052,205.484 251.385,215.318 263.5,222C 271.699,223.267 278.699,220.934 284.5,215C 282.874,212.705 280.707,211.205 278,210.5C 273.969,213.511 269.469,214.677 264.5,214C 261.13,211.303 259.796,207.803 260.5,203.5C 269.5,203.5 278.5,203.5 287.5,203.5C 288.759,187.595 281.426,180.762 265.5,183C 261.76,184.29 258.593,186.457 256,189.5C 254.368,187.067 252.868,184.567 251.5,182C 260.02,173.114 270.02,171.114 281.5,176C 298.449,186.41 302.283,200.576 293,218.5C 289.985,221.683 286.818,224.683 283.5,227.5C 290.479,237.646 298.979,246.313 309,253.5C 309.667,254.167 309.667,254.833 309,255.5C 307.229,256.304 305.729,257.471 304.5,259C 303.5,259.667 302.5,259.667 301.5,259C 291.42,250.922 282.753,241.589 275.5,231C 255.266,231.25 244.266,221.417 242.5,201.5C 243.521,195.781 244.354,190.114 245,184.5C 235.843,168.067 233.176,150.734 237,132.5C 244.077,120.545 254.577,115.378 268.5,117C 286.863,120.349 302.863,128.183 316.5,140.5 Z"/></g>
<g><path style="opacity:1" fill="#16609c" d="M 325.5,146.5 C 322.953,147.934 320.619,149.6 318.5,151.5C 308.752,158.407 299.419,165.907 290.5,174C 287.313,174.108 284.313,173.275 281.5,171.5C 280.479,170.998 280.312,170.332 281,169.5C 289.768,160.889 298.934,152.889 308.5,145.5C 311.167,143.833 313.833,142.167 316.5,140.5C 329.391,131.889 343.391,125.723 358.5,122C 392.758,118.26 405.592,133.093 397,166.5C 395.495,170.35 393.995,174.183 392.5,178C 389.773,178.818 387.106,178.652 384.5,177.5C 392.221,164.851 395.721,151.184 395,136.5C 389.479,126.36 380.979,122.526 369.5,125C 353.288,129.274 338.621,136.44 325.5,146.5 Z"/></g>
<g><path style="opacity:1" fill="#e9f0f5" d="M 443.5,129.5 C 446.988,130.143 449.488,132.143 451,135.5C 451.929,139.244 451.429,142.744 449.5,146C 446.783,147.033 444.949,146.2 444,143.5C 443.501,138.845 443.334,134.179 443.5,129.5 Z"/></g>
<g><path style="opacity:1" fill="#f47232" d="M 325.5,146.5 C 336.812,154.479 346.479,164.146 354.5,175.5C 349.833,176.833 345.167,176.833 340.5,175.5C 333.435,167.108 326.101,159.108 318.5,151.5C 320.619,149.6 322.953,147.934 325.5,146.5 Z"/></g>
<g><path style="opacity:1" fill="#0c5d9b" d="M 200.5,183.5 C 203.5,183.5 206.5,183.5 209.5,183.5C 209.169,192.192 209.502,200.859 210.5,209.5C 215.616,212.42 220.45,212.087 225,208.5C 226.053,200.198 226.553,191.865 226.5,183.5C 229.5,183.5 232.5,183.5 235.5,183.5C 235.666,192.173 235.5,200.84 235,209.5C 231.043,215.502 225.376,218.502 218,218.5C 210.857,218.688 205.191,216.021 201,210.5C 200.5,201.506 200.334,192.506 200.5,183.5 Z"/></g>
<g><path style="opacity:1" fill="#f1f5f8" d="M 132.5,186.5 C 133.552,186.351 134.552,186.517 135.5,187C 138.273,193.44 143.106,197.274 150,198.5C 150.497,201.146 150.664,203.813 150.5,206.5C 153.833,206.973 156,205.64 157,202.5C 157.498,199.183 157.665,195.85 157.5,192.5C 159.5,192.5 161.5,192.5 163.5,192.5C 164.162,198.563 162.996,204.23 160,209.5C 156.06,211.15 151.893,211.983 147.5,212C 145.787,213.378 144.453,215.045 143.5,217C 139.301,217.327 135.301,216.494 131.5,214.5C 133.078,213.702 134.744,213.202 136.5,213C 138.394,211.921 138.727,210.587 137.5,209C 136.127,208.125 134.627,207.625 133,207.5C 131.159,208.125 129.326,208.292 127.5,208C 123.984,204.651 120.651,201.151 117.5,197.5C 114.692,196.03 111.692,195.197 108.5,195C 109.5,194 110.5,193 111.5,192C 119.583,194.021 126.583,192.187 132.5,186.5 Z"/></g>
<g><path style="opacity:1" fill="#125f9c" d="M 311.5,186.5 C 316.93,186.161 322.264,186.661 327.5,188C 331.529,189.522 333.863,192.355 334.5,196.5C 331.753,196.813 329.086,196.48 326.5,195.5C 322.278,190.413 318.278,190.413 314.5,195.5C 314.608,196.442 314.941,197.275 315.5,198C 318.957,199.743 322.623,200.743 326.5,201C 334.471,203.11 336.971,207.943 334,215.5C 332.457,217.378 330.624,218.878 328.5,220C 323.238,221.439 317.904,221.772 312.5,221C 307.244,218.995 304.578,215.161 304.5,209.5C 307.572,209.183 310.572,209.516 313.5,210.5C 314.04,211.748 314.707,212.915 315.5,214C 318.429,214.777 321.263,214.61 324,213.5C 324.72,211.888 324.554,210.388 323.5,209C 318.78,207.457 314.113,205.791 309.5,204C 303.755,197.389 304.421,191.555 311.5,186.5 Z"/></g>
<g><path style="opacity:1" fill="#0a5d9a" d="M 366.5,187.5 C 368.948,188.473 371.615,188.806 374.5,188.5C 374.5,190.833 374.5,193.167 374.5,195.5C 370.167,195.5 365.833,195.5 361.5,195.5C 361.5,204.5 361.5,213.5 361.5,222.5C 358.833,222.5 356.167,222.5 353.5,222.5C 353.5,213.5 353.5,204.5 353.5,195.5C 349.167,195.5 344.833,195.5 340.5,195.5C 340.5,192.833 340.5,190.167 340.5,187.5C 349.167,187.5 357.833,187.5 366.5,187.5 Z"/></g>
<g><path style="opacity:1" fill="#f47233" d="M 268.5,188.5 C 274.149,188.487 277.816,191.154 279.5,196.5C 273.537,197.496 267.537,197.829 261.5,197.5C 262.166,193.154 264.499,190.154 268.5,188.5 Z"/></g>
<g><path style="opacity:1" fill="#14609c" d="M 388.5,189.5 C 399.617,187.194 407.951,190.861 413.5,200.5C 408.827,202.378 404.827,201.545 401.5,198C 387.364,195.308 382.698,200.808 387.5,214.5C 393.193,219.744 398.859,219.577 404.5,214C 407.146,213.503 409.813,213.336 412.5,213.5C 410.989,219.784 406.989,223.617 400.5,225C 382.675,226.504 375.175,218.337 378,200.5C 380.357,195.645 383.857,191.979 388.5,189.5 Z"/></g>
<g><path style="opacity:1" fill="#2165a0" d="M 127.5,191.5 C 133.627,190.627 136.627,193.293 136.5,199.5C 133.234,199.371 130.234,198.371 127.5,196.5C 126.334,194.833 126.334,193.166 127.5,191.5 Z"/></g>
<g><path style="opacity:1" fill="#f0f5f8" d="M 468.5,191.5 C 471.518,191.335 474.518,191.502 477.5,192C 482.414,197.495 485.748,203.828 487.5,211C 487.583,214.337 486.25,216.837 483.5,218.5C 478.362,216.337 473.029,216.003 467.5,217.5C 469.225,219.957 469.725,222.623 469,225.5C 467.951,227.107 466.451,227.773 464.5,227.5C 463.878,220.359 459.878,217.359 452.5,218.5C 451.708,215.874 451.041,213.208 450.5,210.5C 452.858,207.305 455.025,203.972 457,200.5C 458.11,198.963 459.61,198.297 461.5,198.5C 460.824,207.158 464.824,211.825 473.5,212.5C 473.67,211.178 473.337,210.011 472.5,209C 468.874,208.722 466.874,206.888 466.5,203.5C 468.527,203.338 470.527,203.505 472.5,204C 474.711,205.721 476.711,207.721 478.5,210C 479.332,210.688 479.998,210.521 480.5,209.5C 477.805,205.97 475.305,202.304 473,198.5C 467.959,198.309 466.459,195.976 468.5,191.5 Z"/></g>
<g><path style="opacity:1" fill="#ebf1f6" d="M 489.5,191.5 C 494.123,190.408 495.956,192.075 495,196.5C 492.603,198.782 489.769,200.116 486.5,200.5C 486.129,196.997 487.129,193.997 489.5,191.5 Z"/></g>
<g><path style="opacity:1" fill="#73a3c6" d="M 366.5,187.5 C 369.5,187.5 372.5,187.5 375.5,187.5C 375.5,190.5 375.5,193.5 375.5,196.5C 371.167,196.5 366.833,196.5 362.5,196.5C 362.5,205.5 362.5,214.5 362.5,223.5C 359.287,223.81 356.287,223.477 353.5,222.5C 356.167,222.5 358.833,222.5 361.5,222.5C 361.5,213.5 361.5,204.5 361.5,195.5C 365.833,195.5 370.167,195.5 374.5,195.5C 374.5,193.167 374.5,190.833 374.5,188.5C 371.615,188.806 368.948,188.473 366.5,187.5 Z"/></g>
<g><path style="opacity:1" fill="#e1ebf2" d="M 492.5,201.5 C 493.833,201.5 495.167,201.5 496.5,201.5C 496.5,203.167 496.5,204.833 496.5,206.5C 492.065,207.078 490.732,205.411 492.5,201.5 Z"/></g>
<g><path style="opacity:1" fill="#3a73a9" d="M 456.5,207.5 C 460.514,209.18 461.181,211.513 458.5,214.5C 455.497,212.822 454.831,210.489 456.5,207.5 Z"/></g>
<g><path style="opacity:1" fill="#f2f6f9" d="M 492.5,210.5 C 496.346,212.088 500.346,213.088 504.5,213.5C 505.267,217.651 503.767,220.317 500,221.5C 499.167,221.167 498.333,220.833 497.5,220.5C 496.199,216.896 494.533,213.563 492.5,210.5 Z"/></g>
<g><path style="opacity:1" fill="#18619d" d="M 242.5,221.5 C 244.683,222.85 246.35,224.684 247.5,227C 242.363,236.439 238.196,246.273 235,256.5C 234.333,262.167 234.333,267.833 235,273.5C 238.6,280.555 244.434,283.888 252.5,283.5C 265.72,282.558 278.054,278.725 289.5,272C 308.948,259.933 326.948,245.933 343.5,230C 348.202,229.172 352.869,229.338 357.5,230.5C 333.66,258.425 303.993,277.258 268.5,287C 236.653,290.479 224.82,276.645 233,245.5C 235.351,237.138 238.518,229.138 242.5,221.5 Z"/></g>
<g><path style="opacity:1" fill="#f5773a" d="M 380.5,230.5 C 383.448,230.223 386.281,230.556 389,231.5C 395.728,245.705 397.062,260.372 393,275.5C 387.622,287.113 378.455,292.446 365.5,291.5C 346.651,289.907 329.985,283.073 315.5,271C 318.029,268.971 320.696,267.138 323.5,265.5C 336.163,275.334 350.163,282.834 365.5,288C 374.129,289.47 381.629,287.304 388,281.5C 388.862,279.913 389.529,278.246 390,276.5C 390.667,269.833 390.667,263.167 390,256.5C 387.318,247.617 384.151,238.951 380.5,230.5 Z"/></g>
<g><path style="opacity:1" fill="#ebf2f6" d="M 275.5,360.5 C 277.604,360.201 279.604,360.534 281.5,361.5C 276.138,369.03 270.971,376.697 266,384.5C 263.534,385.777 261.034,385.777 258.5,384.5C 263.243,378.679 267.743,372.679 272,366.5C 272.333,364.953 271.833,363.62 270.5,362.5C 272.291,361.83 273.958,361.163 275.5,360.5 Z"/></g>
<g><path style="opacity:1" fill="#eef4f8" d="M 292.5,360.5 C 301.711,359.542 305.545,363.542 304,372.5C 299.136,383.238 290.969,387.071 279.5,384C 278.62,382.644 278.286,381.144 278.5,379.5C 279.833,379.5 281.167,379.5 282.5,379.5C 282.5,380.5 282.5,381.5 282.5,382.5C 287.813,382.367 292.146,380.2 295.5,376C 288.661,375.179 286.161,371.346 288,364.5C 289.397,362.93 290.897,361.596 292.5,360.5 Z"/></g>
<g><path style="opacity:1" fill="#e8eff5" d="M 320.5,362.5 C 326.206,362.171 331.872,362.505 337.5,363.5C 335.266,365.381 333.933,367.715 333.5,370.5C 332.167,370.5 330.833,370.5 329.5,370.5C 329.5,369.5 329.5,368.5 329.5,367.5C 326.833,367.5 324.167,367.5 321.5,367.5C 321.5,368.5 321.5,369.5 321.5,370.5C 328.104,371.334 330.271,375.001 328,381.5C 327.06,384.773 324.893,386.606 321.5,387C 312.736,389.56 308.902,386.393 310,377.5C 311.789,375.771 313.956,375.104 316.5,375.5C 316.66,377.199 316.494,378.866 316,380.5C 314.187,379.391 313.354,380.058 313.5,382.5C 319.986,384.165 322.819,381.832 322,375.5C 321.5,375 321,374.5 320.5,374C 318.1,373.814 315.766,373.314 313.5,372.5C 315.859,369.149 318.192,365.815 320.5,362.5 Z"/></g>
<g><path style="opacity:1" fill="#ecf2f7" d="M 352.5,362.5 C 356.516,361.9 360.016,362.9 363,365.5C 364.224,369.21 363.058,371.877 359.5,373.5C 357.343,372.034 357.01,370.2 358.5,368C 353.576,366.959 349.576,368.459 346.5,372.5C 354.063,372.559 356.896,376.226 355,383.5C 351.465,387.789 346.965,389.289 341.5,388C 339.667,387.5 338.5,386.333 338,384.5C 336.767,377.127 339.267,371.294 345.5,367C 347.898,365.476 350.231,363.976 352.5,362.5 Z"/></g>
<g><path style="opacity:1" fill="#2569a2" d="M 292.5,364.5 C 298.172,363.185 300.505,365.185 299.5,370.5C 297.167,369.167 294.833,369.167 292.5,370.5C 291.481,368.54 291.481,366.54 292.5,364.5 Z"/></g>
<g><path style="opacity:1" fill="#2066a1" d="M 342.5,377.5 C 344.094,377.92 345.594,378.586 347,379.5C 348.3,378.293 349.8,377.626 351.5,377.5C 351.076,383.803 348.243,385.469 343,382.5C 342.506,380.866 342.34,379.199 342.5,377.5 Z"/></g>
<g><path style="opacity:1" fill="#f2f2f2" d="M 280.5,403.5 C 298.495,404.802 316.495,404.802 334.5,403.5C 422.665,404.499 510.998,404.833 599.5,404.5C 599.5,405.5 599.5,406.5 599.5,407.5C 399.5,407.5 199.5,407.5 -0.5,407.5C -0.5,406.5 -0.5,405.5 -0.5,404.5C 93.3348,404.833 187.001,404.499 280.5,403.5 Z"/></g>
</svg>
